<svg width="31" height="26" viewBox="0 0 31 26" fill="none" xmlns="http://www.w3.org/2000/svg">
<path d="M25.4706 20.2073V17.7431H13.1547L11.926 14.2515H26.6127L31 2.25912H28.3765L24.8907 11.7874H11.0588L6.91118 0H5.91392H0V2.46413H5.16604L11.4096 20.2073H25.4706Z" fill="black"/>
<path d="M11.9537 25.5461C13.0424 25.5461 13.925 24.6636 13.925 23.5749C13.925 22.4861 13.0424 21.6036 11.9537 21.6036C10.865 21.6036 9.98242 22.4861 9.98242 23.5749C9.98242 24.6636 10.865 25.5461 11.9537 25.5461Z" fill="black"/>
<path d="M24.7669 25.5461C25.8556 25.5461 26.7382 24.6636 26.7382 23.5749C26.7382 22.4861 25.8556 21.6036 24.7669 21.6036C23.6782 21.6036 22.7957 22.4861 22.7957 23.5749C22.7957 24.6636 23.6782 25.5461 24.7669 25.5461Z" fill="black"/>
</svg>
